<svg width="31" height="30" viewBox="0 0 31 30" fill="none" xmlns="http://www.w3.org/2000/svg">
<path fill-rule="evenodd" clip-rule="evenodd" d="M9.27026 24C7.62026 24 6.27026 25.35 6.27026 27C6.27026 28.65 7.62026 30 9.27026 30C10.9203 30 12.2703 28.65 12.2703 27C12.2703 25.35 10.9203 24 9.27026 24ZM0.270264 0V3H3.27026L8.67026 14.4L6.57026 18C6.42026 18.45 6.27026 19.05 6.27026 19.5C6.27026 21.15 7.62026 22.5 9.27026 22.5H27.2703V19.5H9.87026C9.72026 19.5 9.57026 19.35 9.57026 19.2V19.05L10.9203 16.5H22.0203C23.2203 16.5 24.1203 15.9 24.5703 15L29.9703 5.25C30.2703 4.95 30.2703 4.8 30.2703 4.5C30.2703 3.6 29.6703 3 28.7703 3H6.57026L5.22026 0L0.270264 0ZM24.2703 24C22.6203 24 21.2703 25.35 21.2703 27C21.2703 28.65 22.6203 30 24.2703 30C25.9203 30 27.2703 28.65 27.2703 27C27.2703 25.35 25.9203 24 24.2703 24Z" fill="black"/>
</svg>
